<?xml version="1.0" standalone="no"?>
<!DOCTYPE svg PUBLIC "-//W3C//DTD SVG 20010904//EN"
 "http://www.w3.org/TR/2001/REC-SVG-20010904/DTD/svg10.dtd">
<svg version="1.0" xmlns="http://www.w3.org/2000/svg"
 width="484.000000pt" height="484.000000pt" viewBox="0 0 484.000000 484.000000"
 preserveAspectRatio="xMidYMid meet">
<metadata>
Created by potrace 1.14, written by Peter Selinger 2001-2017
</metadata>
<g transform="translate(0.000000,484.000000) scale(0.100000,-0.100000)"
fill="#000000" stroke="none">
<path d="M1603 3442 c-31 -5 -29 -15 17 -102 22 -41 82 -158 133 -260 52 -102
133 -260 181 -352 61 -118 84 -172 78 -185 -18 -43 -53 -103 -61 -103 -14 0
-53 68 -116 200 -33 68 -134 273 -225 455 l-165 330 -207 3 c-163 2 -208 0
-207 -10 0 -7 64 -139 142 -293 78 -154 280 -555 449 -891 169 -337 314 -614
323 -617 12 -5 43 49 141 246 70 138 131 258 137 265 8 10 35 -35 110 -180
144 -278 163 -313 176 -313 6 0 24 25 39 55 16 30 220 430 455 887 235 458
427 840 427 848 0 8 -6 15 -12 16 -42 3 -395 4 -406 1 -7 -3 -22 -25 -34 -51
-20 -45 -154 -328 -271 -571 -33 -69 -86 -180 -118 -247 -32 -68 -63 -123 -68
-123 -12 0 -71 98 -71 118 0 8 92 198 205 422 113 225 205 416 205 425 0 13
-26 15 -198 15 -177 0 -201 -2 -214 -17 -9 -10 -55 -97 -103 -193 -111 -224
-113 -225 -135 -167 -8 17 -50 106 -95 197 -45 91 -84 172 -86 179 -4 11 -44
14 -205 15 -109 1 -209 0 -221 -2z"/>
<path d="M3514 3418 c-10 -16 -170 -328 -632 -1228 -128 -250 -246 -480 -262
-510 -19 -36 -26 -58 -19 -65 9 -9 430 -16 456 -7 7 2 11 8 8 12 -8 13 452
965 468 968 15 3 23 -11 144 -268 25 -52 65 -137 90 -189 24 -51 69 -146 100
-210 30 -64 74 -154 96 -201 23 -47 40 -92 40 -100 -2 -13 28 -15 218 -15 141
1 223 5 230 12 7 7 -86 200 -321 664 -183 360 -386 762 -452 894 -128 256
-143 278 -164 243z"/>
<path d="M700 2953 c-128 -252 -252 -494 -275 -538 -24 -44 -94 -181 -156
-305 -61 -124 -141 -278 -176 -342 -34 -64 -63 -124 -63 -133 0 -18 -2 -17
249 -19 182 -1 211 4 211 34 0 4 81 176 181 381 100 206 201 416 225 467 27
56 50 92 59 92 10 0 45 -62 99 -172 250 -518 364 -756 370 -775 4 -11 14 -23
24 -25 14 -4 300 -3 370 1 15 1 22 7 22 22 0 11 -79 176 -176 367 -96 191
-290 577 -431 857 -241 481 -275 545 -294 545 -4 0 -112 -206 -239 -457z"/>
<path d="M4554 1652 c-6 -4 -11 -25 -11 -47 0 -22 -1 -47 -2 -56 -1 -14 -96
-15 -986 -15 -871 1 -985 -1 -983 -14 3 -13 120 -15 981 -16 537 -1 981 -4
985 -8 4 -4 8 -24 8 -44 2 -66 4 -72 18 -72 17 0 219 97 254 122 l23 16 -28
20 c-31 22 -197 106 -228 115 -11 4 -25 3 -31 -1z"/>
<path d="M1910 1523 c0 -15 -9 -14 163 -17 124 -2 161 3 143 21 -3 4 -73 7
-156 7 -115 1 -150 -2 -150 -11z"/>
<path d="M2267 1532 c-9 -2 -17 -9 -17 -16 0 -10 33 -12 138 -12 75 1 138 4
140 9 1 4 2 10 2 15 0 7 -229 10 -263 4z"/>
<path d="M0 1520 c0 -5 17 -10 38 -10 20 0 435 0 922 -1 487 0 891 0 898 0 6
1 12 6 12 11 0 7 -318 10 -935 10 -617 0 -935 -3 -935 -10z"/>
</g>
</svg>
